<?xml version="1.0" standalone="no"?>
<!DOCTYPE svg PUBLIC "-//W3C//DTD SVG 20010904//EN"
 "http://www.w3.org/TR/2001/REC-SVG-20010904/DTD/svg10.dtd">
<svg version="1.0" xmlns="http://www.w3.org/2000/svg"
 width="224.000000pt" height="224.000000pt" viewBox="0 0 224.000000 224.000000"
 preserveAspectRatio="xMidYMid meet">
<metadata>
Created by potrace 1.11, written by Peter Selinger 2001-2013
</metadata>
<g transform="translate(0.000000,224.000000) scale(0.100000,-0.100000)"
fill="#000000" stroke="none">
<path d="M998 2235 c-2 -2 -21 -6 -43 -9 -80 -13 -96 -17 -177 -42 -450 -142
-762 -559 -773 -1034 -7 -276 80 -531 250 -737 217 -263 513 -404 850 -407
144 -1 209 7 323 40 470 134 797 558 807 1044 2 76 -3 157 -11 208 -82 473
-435 833 -904 923 -57 10 -314 22 -322 14z"/>
</g>
</svg>
