<svg xmlns="http://www.w3.org/2000/svg" xmlns:xlink="http://www.w3.org/1999/xlink" width="201" height="666" viewBox="0 0 201 666">
  <defs>
    <clipPath id="clip-path">
      <rect id="Rectangle_95" data-name="Rectangle 95" width="201" height="666" transform="translate(0 2017)" fill="#fff" stroke="#707070" stroke-width="1"/>
    </clipPath>
  </defs>
  <g id="Mask_Group_5" data-name="Mask Group 5" transform="translate(0 -2017)" clip-path="url(#clip-path)">
    <g id="Group_55" data-name="Group 55" transform="translate(-155 2017)">
      <g id="Group_52" data-name="Group 52" transform="translate(71.503 99.199)">
        <ellipse id="Ellipse_30" data-name="Ellipse 30" cx="129.475" cy="23.719" rx="129.475" ry="23.719" transform="translate(25.902 518.363)" fill="none" stroke="#fff" stroke-linecap="round" stroke-width="2" stroke-dasharray="0 10"/>
        <path id="Path_325" data-name="Path 325" d="M301.767,553.289A33.513,33.513,0,1,1,279.225,562,33.52,33.52,0,0,1,301.767,553.289Z" transform="translate(-216.846 -108.796)" fill="none" stroke="#fff" stroke-miterlimit="10" stroke-width="2"/>
        <path id="Path_326" data-name="Path 326" d="M302.349,565.613a21.769,21.769,0,1,1-21.773,21.759A21.763,21.763,0,0,1,302.349,565.613Z" transform="translate(-217.42 -109.364)" fill="none" stroke="#fff" stroke-miterlimit="10" stroke-width="2"/>
        <path id="Path_327" data-name="Path 327" d="M293.307,587.963a9.631,9.631,0,1,0,9.642-9.631,9.642,9.642,0,0,0-9.642,9.631" transform="translate(-218.019 -109.951)" fill="none" stroke="#fff" stroke-miterlimit="10" stroke-width="2"/>
        <path id="Path_328" data-name="Path 328" d="M340.029,280.689,320.507,578.37s-2.15,11.2-18.649,11.522c-2.465.051-7.007.088-13,.113h0l-41.407.045c-16.465-.009-34.138-.037-49.475-.068a46.245,46.245,0,0,0-65.22-56.574l-23.868-252.72Z" transform="translate(-69.566 -96.215)" fill="none" stroke="#fff" stroke-miterlimit="10" stroke-width="2"/>
        <path id="Path_329" data-name="Path 329" d="M353.04,261.794v12.384c0,3.128-3.324,5.642-7.429,5.642H101.978c-4.1,0-7.429-2.514-7.429-5.642V261.794H353.04" transform="translate(-68.905 -95.343)" fill="none" stroke="#fff" stroke-miterlimit="10" stroke-width="2"/>
        <path id="Path_330" data-name="Path 330" d="M134.419,231.493a8.28,8.28,0,0,1,3.815-4.784l46.975-30.3L376.673,87.289l3.841,5.956L141.758,247.237l-5.034-7.8s-3.419-4.48-2.306-7.941" transform="translate(-134.196 -87.289)" fill="none" stroke="#fff" stroke-miterlimit="10" stroke-width="2"/>
        <path id="Path_331" data-name="Path 331" d="M355.65,314.9" transform="translate(-320.565 -97.794)" fill="none" stroke="#326590" stroke-miterlimit="10" stroke-width="2"/>
        <path id="Path_332" data-name="Path 332" d="M390.844,311.6l-.4-4.274v0L388.383,285.6h-3.5a10.925,10.925,0,0,1-3.345-.516c-.125-.044-.258-.088-.383-.133a9.076,9.076,0,0,1-2.049-1.046s0-.008-.007-.008a6.491,6.491,0,0,1-.575-.434l-.008-.008c-.139-.118-.272-.236-.4-.354-.044-.044-.081-.081-.117-.125s-.089-.089-.126-.133c-.125-.126-.236-.258-.346-.391a6.691,6.691,0,0,1-.56-.839,4.545,4.545,0,0,1-.405-.907,5.087,5.087,0,0,1-.273-1.636v-14.34H358.03v32.616L390.844,311.6" transform="translate(-358.03 -95.478)" fill="none" stroke="#fff" stroke-linecap="round" stroke-miterlimit="10" stroke-width="2"/>
        <path id="Path_333" data-name="Path 333" d="M355.65,314.9" transform="translate(-320.565 -97.794)" fill="none" stroke="#326590" stroke-miterlimit="10" stroke-width="2"/>
        <line id="Line_9" data-name="Line 9" y1="292.378" x2="18.566" transform="translate(232.292 201.299)" fill="none" stroke="#fff" stroke-miterlimit="10" stroke-width="1"/>
        <path id="Path_334" data-name="Path 334" d="M175.174,212.414h.273a12.413,12.413,0,0,0,12.4,12.4v.273a12.414,12.414,0,0,0-12.4,12.4h-.273a12.413,12.413,0,0,0-12.4-12.4v-.273A12.413,12.413,0,0,0,175.174,212.414Zm.136,23.221A12.7,12.7,0,0,1,186,224.949a12.7,12.7,0,0,1-10.686-10.686,12.7,12.7,0,0,1-10.685,10.686A12.7,12.7,0,0,1,175.31,235.635Z" transform="translate(31.212 -93.064)" fill="none" stroke="#fff" stroke-miterlimit="10" stroke-width="1"/>
        <path id="Path_335" data-name="Path 335" d="M124.228,172.549h.453c0,13.631,9.255,24.722,20.632,24.722v.544c-11.377,0-20.632,11.09-20.632,24.722h-.453c0-13.631-9.255-24.722-20.632-24.722v-.544C114.972,197.271,124.228,186.18,124.228,172.549Zm.227,46.3c1.347-10.985,8.613-19.692,17.781-21.306-9.167-1.614-16.434-10.321-17.781-21.306-1.347,10.985-8.614,19.692-17.781,21.306C115.84,199.157,123.108,207.863,124.455,218.849Z" transform="translate(130.194 -91.224)" fill="none" stroke="#fff" stroke-miterlimit="10" stroke-width="1"/>
        <path id="Path_336" data-name="Path 336" d="M159.111,136.383h.331a15.023,15.023,0,0,0,15.007,15.007v.331a15.023,15.023,0,0,0-15.007,15.007h-.331A15.023,15.023,0,0,0,144.1,151.721v-.331A15.023,15.023,0,0,0,159.111,136.383Zm.165,28.106a15.371,15.371,0,0,1,12.934-12.933,15.374,15.374,0,0,1-12.934-12.934,15.371,15.371,0,0,1-12.933,12.934A15.369,15.369,0,0,1,159.276,164.489Z" transform="translate(62.419 -89.555)" fill="none" stroke="#fff" stroke-miterlimit="10" stroke-width="1"/>
        <line id="Line_10" data-name="Line 10" x2="21.775" y2="230.556" transform="translate(60.254 201.299)" fill="none" stroke="#fff" stroke-miterlimit="10" stroke-width="1"/>
      </g>
      <g id="Ellipse_51" data-name="Ellipse 51" fill="none" stroke="#fff" stroke-linecap="round" stroke-width="1.5" stroke-dasharray="0 10">
        <ellipse cx="125" cy="124.5" rx="125" ry="124.5" stroke="none"/>
        <ellipse cx="125" cy="124.5" rx="124.25" ry="123.75" fill="none"/>
      </g>
    </g>
  </g>
</svg>
