<svg xmlns="http://www.w3.org/2000/svg" width="567.854" height="734.2" viewBox="0 0 567.854 734.2">
  <g id="Group_43" data-name="Group 43" transform="translate(-870.867 -27.809)">
    <ellipse id="Ellipse_35" data-name="Ellipse 35" cx="201.807" cy="36.152" rx="201.807" ry="36.152" transform="translate(887.281 689.703)" fill="#326590" opacity="0.1"/>
    <path id="Path_343" data-name="Path 343" d="M978.575,222.426a80.252,80.252,0,0,0,120.115,56.005A143.174,143.174,0,1,0,1227.062,142a142.648,142.648,0,0,0-91.751,46.659,80.269,80.269,0,0,0-157.393,28.957Z" transform="translate(19.617 18.814)" fill="#fff"/>
    <path id="Path_344" data-name="Path 344" stroke="#5fa9e8" d="M1006.546,214.2A80.253,80.253,0,0,0,1126.662,270.2a143.174,143.174,0,1,0,128.372-136.433,142.648,142.648,0,0,0-91.751,46.659,80.269,80.269,0,0,0-157.393,28.955Z" fill="none" transform="translate(24.811 17.286)" stroke-linecap="round" stroke-linejoin="round" stroke-width="2" stroke-dasharray="0 7 0 7"/>
    <path id="Rectangle_77" data-name="Rectangle 77" d="M6.809,0H338.881a6.809,6.809,0,0,1,6.809,6.809v17.9a0,0,0,0,1,0,0H0a0,0,0,0,1,0,0V6.809A6.809,6.809,0,0,1,6.809,0Z" transform="translate(1262.919 312.121) rotate(180)" fill="#aa6969"/>
    <path id="Rectangle_78" data-name="Rectangle 78" d="M6.809,0h307.14a6.809,6.809,0,0,1,6.809,6.809v5.547a0,0,0,0,1,0,0H0a0,0,0,0,1,0,0V6.809A6.809,6.809,0,0,1,6.809,0Z" transform="translate(930.024 262.429)" fill="#aa6969"/>
    <path id="Rectangle_79" data-name="Rectangle 79" d="M6.809,0H273.984a6.809,6.809,0,0,1,6.809,6.809v5.547a0,0,0,0,1,0,0H0a0,0,0,0,1,0,0V6.809A6.809,6.809,0,0,1,6.809,0Z" transform="translate(950.442 249.927)" fill="#aa6969"/>
    <path id="Path_345" data-name="Path 345" d="M956.225,590.86v12.921a7.159,7.159,0,0,1-7.137,7.137h-2.144a7.158,7.158,0,0,1-7.137-7.137v-67a7.158,7.158,0,0,1,7.137-7.137h2.144a7.071,7.071,0,0,1,3.453.9" transform="translate(12.618 93.202)"/>
    <path id="Path_346" data-name="Path 346" d="M940.545,600.152h0c-6.282,0-6.282-62.661,0-62.661h0Z" transform="translate(11.88 94.66)"/>
    <rect id="Rectangle_80" data-name="Rectangle 80" width="3.773" height="20.981" rx="1.546" transform="translate(943.941 652.991)"/>
    <path id="Path_347" data-name="Path 347" d="M1155.127,529.762a7.088,7.088,0,0,1,1.307-.121h2.144a7.159,7.159,0,0,1,7.137,7.137v67a7.159,7.159,0,0,1-7.137,7.137h-2.144a7.158,7.158,0,0,1-7.136-7.137v-7.739" transform="translate(51.525 93.202)"/>
    <path id="Path_348" data-name="Path 348" d="M1163.143,537.491h0c1.263,0,2.271,2.532,3.091,6.927,2.938,15.732,1.929,55.734-3.091,55.734h0Z" transform="translate(54.097 94.66)"/>
    <path id="Path_359" data-name="Path 359" d="M1.546,0h.682A1.546,1.546,0,0,1,3.773,1.546v17.89a1.546,1.546,0,0,1-1.546,1.546H1.546A1.546,1.546,0,0,1,0,19.435V1.546A1.546,1.546,0,0,1,1.546,0Z" transform="translate(1225.724 673.972) rotate(180)"/>
    <circle id="Ellipse_36" data-name="Ellipse 36" cx="18.875" cy="18.875" r="18.875" transform="translate(1090.937 74.101)" fill="#fff"/>
    <ellipse id="Ellipse_37" data-name="Ellipse 37" cx="4.047" cy="5.661" rx="4.047" ry="5.661" transform="translate(1114.558 84.912) rotate(-23.686)" fill="#fff"/>
    <circle id="Ellipse_38" data-name="Ellipse 38" cx="13.119" cy="13.119" r="13.119" transform="translate(1022.688 90.173)" fill="#fff"/>
    <circle id="Ellipse_39" data-name="Ellipse 39" cx="9.486" cy="9.486" r="9.486" transform="translate(1089.089 27.809)" fill="#fff"/>
    <circle id="Ellipse_40" data-name="Ellipse 40" cx="9.889" cy="9.889" r="9.889" transform="translate(973.039 90.173)" fill="#eef7ff" stroke="#5fa9e8" stroke-miterlimit="10" stroke-width="2" stroke-dasharray="1 3 1 3"/>
    <circle id="Ellipse_41" data-name="Ellipse 41" cx="83.624" cy="83.624" r="83.624" transform="translate(871.867 420.803)" stroke-dasharray="0 7 0 7" stroke="#5fa9e8" stroke-linecap="round" stroke-linejoin="round" stroke-width="2" fill="none"/>
    <circle id="Ellipse_42" data-name="Ellipse 42" cx="6.066" cy="6.066" r="6.066" transform="translate(1134.477 92.976)" fill="#fff"/>
    <circle id="Ellipse_43" data-name="Ellipse 43" cx="6.066" cy="6.066" r="6.066" transform="translate(1112.276 40.714)" fill="#eef7ff" stroke="#5fa9e8" stroke-miterlimit="10" stroke-width="2" stroke-dasharray="1 3 1 3"/>
    <circle id="Ellipse_44" data-name="Ellipse 44" cx="5.853" cy="5.853" r="5.853" transform="translate(991.253 152.29)" fill="#fff"/>
    <circle id="Ellipse_45" data-name="Ellipse 45" cx="13.119" cy="13.119" r="13.119" transform="translate(921.63 184.576)" fill="#fff"/>
    <circle id="Ellipse_46" data-name="Ellipse 46" cx="9.889" cy="9.889" r="9.889" transform="translate(871.981 184.576)" fill="#fff"/>
    <circle id="Ellipse_47" data-name="Ellipse 47" cx="5.853" cy="5.853" r="5.853" transform="translate(923.042 235.84)" fill="#fff"/>
    <circle id="Ellipse_48" data-name="Ellipse 48" cx="3.244" cy="3.244" r="3.244" transform="translate(1146.594 133.161)" fill="#fff"/>
    <circle id="Ellipse_49" data-name="Ellipse 49" cx="24.825" cy="24.825" r="24.825" transform="translate(1319.876 331.354)" fill="#fff"/>
    <g id="Group_42" data-name="Group 42" transform="translate(946.128 312.121)">
      <path id="Path_349" data-name="Path 349" d="M934.5,267.588,958.808,665.7s2.679,14.979,23.226,15.41c20.559.459,157.1.056,178.063,0s27.249-15.41,27.249-15.41l35.012-398.109Z" transform="translate(-934.496 -267.588)" fill="#aa6969" stroke="#326590" stroke-width="1"/>
      <path id="Path_350" data-name="Path 350" d="M934.5,267.588,958.808,665.7s2.679,14.979,23.226,15.41c20.559.459,157.1.056,178.063,0s27.249-15.41,27.249-15.41l35.012-398.109Z" transform="translate(-934.496 -267.588)" fill="#aa6969"/>
    </g>
    <line id="Line_15" data-name="Line 15" x1="23.971" y1="377.496" transform="translate(974.411 348.214)" fill="#fff" stroke="#326590" stroke-linecap="round" stroke-miterlimit="10" stroke-width="1" stroke-dasharray="0 10"/>
    <line id="Line_16" data-name="Line 16" x1="35.646" y2="377.431" transform="translate(1169.52 348.214)" fill="#fff" stroke="#326590" stroke-linecap="round" stroke-miterlimit="10" stroke-width="1" stroke-dasharray="0 10"/>
  </g>
</svg>
