<svg xmlns="http://www.w3.org/2000/svg" width="75.352" height="49.966" viewBox="0 0 75.352 49.966">
  <g id="Group_57" data-name="Group 57" transform="translate(1582.068 -2625.717) rotate(90)">
    <path id="Path_354" data-name="Path 354" d="M2675.683,1588.791s-13.312,12.882-21.687,15.6a16.041,16.041,0,0,1-14.159-1.725l24.615-11.047-5.8,1.009c-5.056,1.114-12.611,2.976-16.966,4.984-4.346,1.99-7.345,3.969-9.305,6.426a33.929,33.929,0,0,0-3.744,5.573,14.011,14.011,0,0,0-1.108,2.658s-2.633-1.962-1.549-4.043a37.573,37.573,0,0,1,4.067-6.068,17.154,17.154,0,0,1,4.191-3.627c0-1.357.551-11.075,14.4-15.432,11.134-3.5,27.05,5.694,27.05,5.694" transform="translate(0 -30.2)" fill="#94c03e"/>
    <path id="Path_355" data-name="Path 355" d="M2670.449,1506.717s-6.957,22.97-14.727,31.321a20.783,20.783,0,0,1-17.116,6.966l20.91-28.012-5.935,4.8c-5.022,4.448-12.4,11.315-16.069,16.33-3.666,4.991-5.815,9.121-6.486,13.137a43.913,43.913,0,0,0-.728,8.668,18.094,18.094,0,0,0,.42,3.707s-4.217-.564-4.3-3.6a48.635,48.635,0,0,1,.782-9.432,22.2,22.2,0,0,1,2.46-6.745c-.851-1.539-6.353-12.886,6.579-26.542,10.4-10.982,34.211-10.593,34.211-10.593" transform="translate(-0.275 0)" fill="#94c03e"/>
  </g>
</svg>
